PathFileType	4	(X/Y/Z)	0_1_24_p0_0-342.trc
DataRate	CameraRate	NumFrames	NumMarkers	Units	OrigDataRate	OrigDataStartFrame	OrigNumFrames
60	60	4	27	m	60	0	342
Frame#	Time	RHip			RKnee			RAnkle			RBigToe			RSmallToe			RHeel			LHip			LKnee			LAnkle			LBigToe			LSmallToe			LHeel			Neck			Head			Nose			RShoulder			RElbow			RWrist			RThumb			RIndex			RPinky			LShoulder			LElbow			LWrist			LThumb			LIndex			LPinky		
		X1	Y1	Z1	X2	Y2	Z2	X3	Y3	Z3	X4	Y4	Z4	X5	Y5	Z5	X6	Y6	Z6	X7	Y7	Z7	X8	Y8	Z8	X9	Y9	Z9	X10	Y10	Z10	X11	Y11	Z11	X12	Y12	Z12	X13	Y13	Z13	X14	Y14	Z14	X15	Y15	Z15	X16	Y16	Z16	X17	Y17	Z17	X18	Y18	Z18	X19	Y19	Z19	X20	Y20	Z20	X21	Y21	Z21	X22	Y22	Z22	X23	Y23	Z23	X24	Y24	Z24	X25	Y25	Z25	X26	Y26	Z26	X27	Y27	Z27
1	0.016666666666666666	0.11731290863527245	0.20461218861937927	0.010981857037032323	0.12987685387104253	0.2389253191208544	-0.4233154425555515	0.15432897160828077	0.2028531355519064	-0.7868399009989024	0.17168075641952749	0.05078987665555209	-0.7826718296206789	0.0997478744077573	0.0826385926895722	-0.8019727039029414	0.16331238216922386	0.22491190270450642	-0.8308795703090391	0.33252353416403124	0.20540158374631504	0.008404711233098994	0.34080750046315356	0.21284719752001494	-0.4040106372110068	0.3529660130031307	0.2379264608502299	-0.8281569959674315	0.3215545676470468	0.05892735451872908	-0.7834594735966132	0.3698434539661165	0.11139626144280299	-0.8038991075435443	0.3405530095233602	0.2888037375406858	-0.885478689973169	0.20269442107304042	0.29319810157220316	0.5328430044224022	0.17905047183506856	0.220443470813308	0.7921196611011811	0.1774904017091252	0.16756935310241827	0.6625145966042539	0.049549304825966874	0.2631893282954544	0.4798752609210958	0.011873139574450145	0.21950396961146879	0.22823996442102626	0.1427186858832374	0.09538955045600692	0.06577262046073344	0.23036317502431053	0.07996349854980396	0.01874424769653793	0.23764100810139968	0.11598709382804052	-0.020371013266845223	0.21195125927839512	0.09109835737260956	-0.02332303606367145	0.35478594072629516	0.24644878617146304	0.4822358623774516	0.41905082959120715	0.24995964832398063	0.21107082452666892	0.3011308544265386	0.07922611697517129	0.09256288312216078	0.2267604679565276	0.03572878323448533	0.07070850114669862	0.21548564899519898	0.03919668545484634	0.04120112224633232	0.23181443703016788	0.09163548603060398	-0.006491973125653519
2	0.03333333333333333	0.11673993159322188	0.20587157695847508	0.014959675055984393	0.12988374102992303	0.23930528070398085	-0.4234794615478188	0.15435824178914168	0.2028505235970193	-0.7868446882863236	0.1766159282392925	0.06502620358747038	-0.793515383010038	0.09982978559188126	0.08304776428562974	-0.8021394239243708	0.16332742279816978	0.22489766414985476	-0.8306971370121755	0.33255481675226684	0.20558056464824012	0.008384289541522672	0.340260005296435	0.21360898116680627	-0.4092194749186931	0.3507772619864639	0.25133228260223384	-0.8375804992158452	0.321570715428869	0.05902244943847453	-0.7835826085457321	0.3759019981741617	0.12467799180288257	-0.814094191028073	0.3448071762982663	0.2862895311330397	-0.8839165933833443	0.20743239379463868	0.30599308813485365	0.5298146105525278	0.17901063358217376	0.22057040865385386	0.7920549320731615	0.1774335563105038	0.16781167180021145	0.6625200550301755	0.04960085426730867	0.26326591410811623	0.48004129873125734	0.011533812458056583	0.22053241705772333	0.23167206671961643	0.14235287731519985	0.09606873230442818	0.06901128658766037	0.2280873747876587	0.08971625917646564	0.009769074447333223	0.23706647612919865	0.11704509064043657	-0.017244218334431023	0.21152836220205312	0.0907281160277201	-0.023264574828900503	0.35481099063382265	0.24637920052596465	0.4822938437262194	0.42431032669018276	0.26354976206839886	0.20251720921649416	0.30062354164847155	0.08031622566832178	0.0956011878962856	0.22059232874562965	0.057410062870733435	0.054313311952992126	0.20885274750267974	0.0521500809093201	0.03181833160520412	0.23123769413945428	0.0923973832291118	-0.0031561852626521415
3	0.05	0.11677536947473816	0.20571257028285203	0.014884472059653035	0.12979553697774132	0.23945193921920488	-0.4237252013919752	0.15438497165832074	0.2027601718286686	-0.786802364424295	0.1766559776800856	0.06517912899344439	-0.7935722511750344	0.10063496345563724	0.08200209832558703	-0.7971380702987647	0.1633730335756363	0.2245729437174139	-0.8305267465473188	0.33211429858845987	0.20658769194348645	0.012028948257702943	0.3402417272130017	0.2136254117794504	-0.40919047912993134	0.3507815220340146	0.2511836388143726	-0.8374170390425066	0.3215912053949317	0.05907647736968328	-0.7835122395604426	0.37589723243348916	0.1247248338533597	-0.8140846606264164	0.34477652210799076	0.2860959786253953	-0.8837238193145486	0.20742590466740538	0.3059642947409879	0.5298136277664768	0.1790698567096787	0.2216524041400306	0.795276050256581	0.17738709550997725	0.16791535640931599	0.6625448968861446	0.04956114840542792	0.26341409027888874	0.48012647523068924	0.011555092075076117	0.22059277464104182	0.23172435833730057	0.14237220255691674	0.09618172691697299	0.0690234118296921	0.22773910702329142	0.08992892823007978	0.009668942988418697	0.23697973991065677	0.11699420031013091	-0.017827907138961045	0.21197780079003234	0.09184078203639588	-0.023911240684130378	0.3547996838625482	0.24639363713302065	0.4822942953128945	0.4242982565525571	0.26373863679760684	0.20232735145949407	0.3009580116628215	0.07937554170018468	0.09239516993457325	0.22388349959809903	0.047079479140252505	0.06589455398586422	0.20904943577838542	0.0535102803810999	0.03505407343096415	0.2291286436220291	0.10338906388527966	-0.007943239662114073
4	0.06666666666666667	0.1171995334941074	0.20448286164997456	0.011082775029379375	0.12981305564296663	0.23969834623830297	-0.4238491981502998	0.15435913078977867	0.20291768573967636	-0.7868777707625146	0.1772637828974649	0.06428905450092325	-0.7889336787791641	0.10086871734477239	0.08400181534799746	-0.7936600686505925	0.16366561791224538	0.2264509955173913	-0.8274581855751315	0.3324929837615707	0.20540181910317534	0.008403405118100832	0.34029055743496595	0.21338501541352156	-0.4091297469632101	0.3507957702520751	0.2512533462038202	-0.8374277160117052	0.3215683776802728	0.05918530153656742	-0.7836312827770109	0.37499802310716124	0.12542538843627768	-0.810267367745171	0.34477496635900656	0.2861271984195516	-0.8837185373768591	0.20268648994710184	0.29311232290575295	0.5328693942175806	0.17903605143295967	0.22051550879213155	0.7921249833247548	0.17745918547838407	0.16782234164209223	0.6625378321988409	0.0495826364857955	0.2633787633250488	0.48014700640203734	0.011494361641777934	0.22075071154422649	0.23175267067921915	0.14237974817283786	0.09602865588404165	0.06912217320245649	0.229834613757871	0.07898776245126506	0.014570568756397421	0.23706531179437257	0.11678493482076534	-0.017299678064975618	0.21186800051878196	0.09126004011498286	-0.023551604202589747	0.3547963524237454	0.24639828038682818	0.4822741091521706	0.4242802527299656	0.2637938533410165	0.20240769150652663	0.30050574118038414	0.08017198689556156	0.0955928401335429	0.22044961454679404	0.056888252146951104	0.054444036163132536	0.20872066390248054	0.05165624640226593	0.031963600679812305	0.23077512812096865	0.09297255663330466	-0.007125133644472898
